<?xml version="1.0" standalone="no"?>
<!DOCTYPE svg PUBLIC "-//W3C//DTD SVG 20010904//EN"
 "http://www.w3.org/TR/2001/REC-SVG-20010904/DTD/svg10.dtd">
<svg version="1.0" xmlns="http://www.w3.org/2000/svg"
 width="664.000000pt" height="664.000000pt" viewBox="0 0 664.000000 664.000000"
 preserveAspectRatio="xMidYMid meet">
<metadata>
Created by potrace 1.11, written by Peter Selinger 2001-2013
</metadata>
<g transform="translate(0.000000,664.000000) scale(0.100000,-0.100000)"
fill="#000000" stroke="none">
<path d="M150 6622 c-38 -19 -60 -52 -60 -93 0 -26 55 -110 123 -187 52 -59
200 -205 241 -237 21 -16 44 -35 50 -42 7 -6 54 -37 104 -68 51 -31 92 -62 93
-69 5 -87 18 -249 23 -271 2 -11 7 -51 10 -90 6 -65 13 -110 16 -110 1 0 3
-13 5 -30 2 -16 6 -45 9 -62 3 -18 8 -45 11 -60 3 -16 7 -39 10 -53 3 -14 7
-37 10 -52 15 -79 69 -270 100 -351 20 -50 37 -96 39 -102 6 -26 60 -132 73
-147 9 -10 13 -18 9 -18 -4 0 6 -18 23 -39 17 -21 31 -43 31 -48 0 -20 140
-141 195 -168 50 -24 74 -29 148 -31 57 -2 101 2 130 12 166 58 315 181 479
397 66 86 198 290 198 306 0 5 3 11 8 13 4 2 20 28 36 58 51 99 110 215 111
220 1 3 18 40 38 83 20 43 37 84 37 92 0 7 7 18 15 25 8 6 14 15 13 18 -4 14
47 132 57 133 5 0 17 2 25 4 17 4 59 11 110 20 19 3 40 11 47 17 7 6 13 8 13
4 0 -9 113 36 240 97 103 50 293 169 319 201 16 19 21 76 8 94 -5 6 -6 12 -2
12 5 0 -5 11 -20 24 -28 25 -242 102 -252 92 -3 -3 -14 -1 -24 4 -14 8 -85 17
-174 22 -52 3 -165 -28 -219 -61 -17 -10 -47 -28 -67 -39 l-35 -19 -79 79
c-78 80 -212 188 -233 188 -5 0 -12 3 -14 8 -12 28 -238 117 -358 141 -162 32
-196 35 -355 36 -181 0 -218 -5 -410 -59 -10 -2 -22 -8 -139 -60 -58 -27 -67
-26 -96 4 -18 20 -102 82 -135 100 -97 54 -180 72 -360 75 -114 3 -146 0 -175
-13z"/>
<path d="M2927 5204 c-1 -1 -22 -4 -47 -7 -71 -9 -143 -27 -166 -42 -12 -7
-51 -72 -88 -143 -65 -127 -183 -332 -196 -342 -3 -3 -17 -23 -30 -45 -90
-151 -328 -413 -460 -507 -128 -90 -279 -157 -395 -175 -50 -7 -166 -7 -240 0
-74 8 -127 -42 -119 -112 10 -90 88 -230 186 -334 37 -40 65 -79 63 -87 -2 -8
-10 -40 -19 -70 -9 -30 -17 -64 -19 -75 -1 -11 -5 -24 -8 -30 -12 -21 0 -231
16 -285 9 -30 17 -59 19 -65 8 -29 54 -117 89 -167 l39 -57 -37 -143 c-20 -79
-50 -192 -66 -253 -17 -60 -31 -119 -33 -130 -2 -11 -9 -32 -15 -47 -6 -16 -8
-28 -6 -28 2 0 0 -11 -5 -25 -5 -14 -12 -36 -14 -48 -2 -12 -26 -103 -52 -202
-25 -99 -46 -199 -46 -222 2 -113 109 -206 225 -197 78 7 159 74 178 148 5 23
14 52 19 66 7 20 30 111 35 140 1 3 4 14 8 25 3 11 9 31 11 45 3 14 13 52 21
85 9 33 21 78 26 100 6 22 12 47 15 55 2 8 10 40 18 70 7 30 18 66 24 80 5 14
10 28 10 33 2 26 26 117 31 117 6 0 28 -48 27 -60 0 -3 20 -34 44 -70 46 -67
129 -156 190 -201 l34 -25 -18 -65 c-9 -36 -18 -72 -19 -80 -2 -8 -6 -20 -10
-26 -5 -7 -6 -13 -3 -13 2 0 0 -15 -5 -32 -6 -18 -12 -40 -14 -48 -11 -43 -92
-354 -126 -485 -22 -82 -41 -157 -43 -165 -2 -8 -11 -40 -19 -71 -26 -102 -5
-184 62 -240 70 -58 172 -62 246 -10 61 43 70 63 120 253 3 10 7 26 9 35 2 10
14 56 26 103 12 47 23 93 25 103 2 9 6 21 9 25 3 5 7 19 10 33 2 13 12 53 21
89 32 126 105 405 115 440 8 32 13 35 47 36 46 1 127 10 169 19 28 6 36 3 60
-26 97 -112 189 -187 294 -236 39 -18 75 -32 83 -32 1 0 25 -8 52 -16 71 -23
263 -27 345 -9 105 24 114 26 126 28 6 0 39 -25 73 -57 34 -31 64 -57 67 -57
2 0 13 -8 24 -18 10 -9 49 -32 87 -51 37 -18 76 -37 85 -42 10 -5 25 -9 33 -9
22 0 20 -16 -26 -189 -70 -268 -71 -271 -70 -318 1 -111 112 -203 229 -189
109 13 157 69 199 236 37 145 64 253 68 270 2 8 4 16 5 18 2 1 3 5 4 10 17 77
40 152 47 153 18 3 25 5 73 27 27 12 50 22 52 22 2 0 28 15 58 33 l56 34 60
-16 c64 -17 65 -18 49 -71 -5 -19 -12 -44 -14 -55 -8 -36 -14 -58 -41 -160
-14 -55 -28 -107 -30 -115 -2 -8 -13 -51 -25 -95 -11 -44 -23 -87 -25 -95 -19
-76 -26 -107 -29 -120 -2 -8 -4 -15 -5 -15 -1 0 -3 -11 -6 -25 -2 -14 -7 -32
-11 -40 -3 -8 -8 -24 -10 -35 -2 -11 -8 -38 -14 -60 -6 -22 -13 -47 -15 -55
-2 -8 -15 -60 -30 -115 -36 -140 -36 -136 -38 -175 -3 -40 26 -115 56 -147 11
-12 41 -32 66 -44 38 -17 57 -20 106 -15 50 5 67 12 105 44 39 33 50 50 69
113 34 108 50 161 56 189 3 14 10 43 16 65 6 22 12 47 14 55 2 8 11 42 20 75
9 33 19 69 21 80 5 24 8 37 23 90 6 22 13 51 16 65 3 14 13 52 22 85 9 33 18
68 19 78 2 9 6 21 9 25 3 5 7 20 10 35 12 56 17 77 68 270 50 187 55 199 83
215 17 9 32 20 35 23 3 3 19 13 36 22 43 22 124 97 172 159 37 48 102 166 106
192 1 6 5 17 9 24 5 6 6 12 2 12 -3 0 -1 9 4 19 9 17 23 120 24 176 0 48 -16
149 -34 207 -10 35 -19 69 -19 77 0 7 29 42 65 77 36 35 65 69 65 74 0 6 5 10
10 10 6 0 10 7 10 15 0 8 4 15 8 15 11 0 81 149 93 198 30 119 31 202 5 347
-5 26 -27 85 -61 159 -39 89 -25 99 36 24 72 -87 173 -182 228 -211 90 -49
152 -41 230 29 71 63 104 132 107 222 3 74 -5 104 -38 153 -9 14 -15 29 -12
32 3 3 -34 45 -83 94 -83 85 -287 233 -320 233 -7 0 -13 5 -13 10 0 6 -7 10
-15 10 -9 0 -15 9 -15 23 0 12 -7 42 -15 67 -58 173 -162 312 -305 408 -51 34
-145 76 -202 91 -4 1 -22 7 -40 12 -29 8 -52 12 -161 23 -15 2 -29 5 -30 7
-164 246 -408 381 -677 373 -68 -1 -172 -13 -179 -20 -4 -4 -84 57 -89 68 -2
5 -9 8 -16 8 -7 0 -21 9 -31 20 -9 10 -20 18 -24 18 -3 -1 -24 7 -46 19 -105
54 -199 76 -339 78 -119 2 -198 -14 -317 -64 l-66 -28 -69 50 c-87 62 -199
117 -279 136 -66 16 -228 33 -238 25z"/>
</g>
</svg>
