<svg xmlns="http://www.w3.org/2000/svg" viewBox="0 0 161.18 165.78"><defs><style>.cls-1{fill:#fff;}</style></defs><g id="Camada_2" data-name="Camada 2"><g id="Camada_1-2" data-name="Camada 1"><path class="cls-1" d="M31.85,58.59c3.38.54,7-.8,10.71-4,3.37-2.89,6.77-7.22,10.1-12.86A111.52,111.52,0,0,0,59.87,27l.9-2.24,2.62-.49c5.33-1,11.38-4.61,13.73-6.11.71-.46,1.42-.93,2.09-1.41a2.53,2.53,0,0,0-.45-4.39,30.75,30.75,0,0,0-7.07-2.14c-3.45-.55-6.38-.21-8.48,1l-3,1.71-2.38-2.51A28.22,28.22,0,0,0,44.31,2.77c-1.12-.29-2.29-.53-3.46-.71-9.22-1.47-15.47.28-19.08,2L19.16,5.31,16.73,3.2A14.08,14.08,0,0,0,9.67.32,29.21,29.21,0,0,0,2.29.16a2.53,2.53,0,0,0-1.79,4c.4.54.81,1.08,1.24,1.61C3,7.41,7.65,12.89,12.51,15.85l2.71,1.64.16,2.28a120.46,120.46,0,0,0,2.07,15.48c1.38,6.66,3.24,12,5.54,16s5,6.39,8,7.17a8.33,8.33,0,0,0,.84.17Z"/><path class="cls-1" d="M161,80c-1.15-4.56-6.79-8.57-12.15-11.45A18.57,18.57,0,0,0,135,53.71a19.81,19.81,0,0,0-3-.53L130,53l-1.17-1.62a19.19,19.19,0,0,0-18.57-7.61l-1.92.31-1.53-1.21a19.18,19.18,0,0,0-7.1-3.53,18.92,18.92,0,0,0-12,.79l-2.31,1-2-1.49a19.32,19.32,0,0,0-16.38-3.14l-.78.21A2.51,2.51,0,0,0,64.64,38c-1.4,2.9-2.87,5.66-4.38,8.21-3.82,6.48-7.84,11.55-12,15.08-5.77,5-11.78,7-17.84,6l-.17,0a2.53,2.53,0,0,0-2.87,3.14,18,18,0,0,0,4.52,8l1.82,1.87L33,82.75c-.08.25-.16.51-.23.78a17.59,17.59,0,0,0,3.75,15.73l-6.74,26a5.14,5.14,0,1,0,10,2.58l5.35-20.59a18.26,18.26,0,0,0,7.39,9.19l-6.58,25.35a5.14,5.14,0,1,0,9.95,2.58l6.46-24.89a19.09,19.09,0,0,0,3.69-.25l2.44-.4L70,120.71a18.89,18.89,0,0,0,9.66,6,19.12,19.12,0,0,0,9.62,0l2.39-.63,1.78,1.71a19.11,19.11,0,0,0,7.77,4.48l-2.81,10.81a5.15,5.15,0,0,0,10,2.59l3.44-13.29a18.4,18.4,0,0,0,4.54-2l1.58-.95,1.78.45c.46.12.92.21,1.38.29l-7.56,29.15a5.14,5.14,0,0,0,10,2.58l8.57-33A17.44,17.44,0,0,0,142,117.38a17.16,17.16,0,0,0-.16-9.13l-.75-2.54,1.89-1.85a17.08,17.08,0,0,0,3.4-19.7l-1-2.13.39-.64c3.14,4,6.91,8.29,10.23,7.56a6.06,6.06,0,0,0,3.28-2.33A7.35,7.35,0,0,0,161,80Z"/></g></g></svg>