<svg xmlns="http://www.w3.org/2000/svg" viewBox="0 0 71.81 104"><g data-name="Camada 2"><path d="M71.81 83.33V59.06a6 6 0 00-6-6 5.93 5.93 0 00-3.59 1.19l-1.7 1.29-.38-2.1a6 6 0 00-9.46-3.78L48.89 51l-.29-2.19a5.87 5.87 0 00-5.79-5h-.32a5.8 5.8 0 00-3.35 1.06l-2.07 1.45v-16.9a5.87 5.87 0 00-1.77-4.21 5.79 5.79 0 00-4.1-1.68H31a4.92 4.92 0 00-.67 0 5.89 5.89 0 00-3.06 1.29 4.08 4.08 0 00-.44.4 5.85 5.85 0 00-1.72 4.16v44.53l-1.95-1.09-3.7-2.06-.08-.05c-1.83-1-2.87-1.59-3.6-2-1-.56-1.39-.86-2.38-1.55l-.77-.53a5.72 5.72 0 00-3.25-1 5.89 5.89 0 00-4.42 2.07 5.75 5.75 0 00.57 8.1l.47.4 2.19 2c1.42 1.29 2.76 2.53 4 3.7 2.64 2.44 5 4.62 7 6.54l.44.41c8.34 7.8 12.53 11.72 16.09 13.56 3 1.57 5.83 1.67 10.76 1.54l2-.06c1.25 0 2.67-.09 4.25-.12s3 0 4.73 0a14.23 14.23 0 008.06-2.48 14.49 14.49 0 002.06-1.71q.3-.3.57-.6a14.19 14.19 0 003.63-9.53zM29.93 17.76a1.81 1.81 0 001 .31 1.76 1.76 0 00.79-.18 1.84 1.84 0 001-1.66V1.84A1.84 1.84 0 0031 0a1.84 1.84 0 00-1.85 1.84v14.39a1.84 1.84 0 00.78 1.53zM18.07 28.92a1.84 1.84 0 00-1.84-1.84H1.84a1.85 1.85 0 000 3.69h14.39a1.84 1.84 0 001.84-1.85zm25.77 0a.53.53 0 000 .13 1.84 1.84 0 001.84 1.72h14.39a1.84 1.84 0 001.84-1.85 1.8 1.8 0 00-.34-1.07 1.84 1.84 0 00-1.5-.77H45.69a1.85 1.85 0 00-1.85 1.84zm-2.47-8.57a1.86 1.86 0 001.31-.54L52.85 9.64A1.85 1.85 0 0050.24 7L40.07 17.2a1.85 1.85 0 001.3 3.15zM9.07 9.64L15 15.53l4.28 4.28a1.85 1.85 0 001 .51 2.07 2.07 0 00.35 0 1.86 1.86 0 001.31-.54 1.86 1.86 0 000-2.61L11.68 7a1.86 1.86 0 00-1.31-.54 1.85 1.85 0 00-1.83 2.09 1.76 1.76 0 00.53 1.09z" fill="#fff" data-name="Camada 1"/></g></svg>