<svg xmlns="http://www.w3.org/2000/svg" viewBox="0 0 507.81 357.98"><defs><style>.cls-1{fill:#fff;}</style></defs><g id="Camada_2" data-name="Camada 2"><g id="Camada_1-2" data-name="Camada 1"><path class="cls-1" d="M330.39,80.34c4.65.74,9.59-1.1,14.69-5.48,4.62-4,9.29-9.91,13.86-17.65A154.17,154.17,0,0,0,368.82,37l1.23-3.07,3.59-.67c7.32-1.39,15.61-6.32,18.83-8.39,1-.62,1.95-1.27,2.87-1.92a3.48,3.48,0,0,0-.62-6A42,42,0,0,0,385,14c-4.73-.75-8.75-.28-11.62,1.35l-4.12,2.36L366,14.23A38.73,38.73,0,0,0,347.48,3.8c-1.54-.39-3.13-.73-4.74-1-12.65-2-21.21.38-26.16,2.75L313,7.27l-3.34-2.88c-2.24-1.95-5.55-3.3-9.68-3.95A40,40,0,0,0,289.87.22,3.45,3.45,0,0,0,287,2.27a3.48,3.48,0,0,0,.38,3.48c.55.73,1.12,1.47,1.7,2.2,1.78,2.21,8.11,9.73,14.78,13.78l3.7,2.25.22,3.13a165.3,165.3,0,0,0,2.84,21.22c1.9,9.13,4.45,16.51,7.6,21.94s6.86,8.76,11,9.83c.38.1.77.18,1.14.24Z"/><path class="cls-1" d="M507.43,109.71C505.84,103.46,498.12,98,490.77,94a25.49,25.49,0,0,0-18.94-20.38,27.57,27.57,0,0,0-4.11-.72L465,72.65l-1.6-2.21A26.31,26.31,0,0,0,437.94,60l-2.64.43-2.09-1.65a26.22,26.22,0,0,0-9.74-4.84A25.91,25.91,0,0,0,407,55l-3.17,1.3-2.74-2A26.44,26.44,0,0,0,378.66,50l-1.07.29a3.47,3.47,0,0,0-2.23,1.85c-1.92,4-3.94,7.77-6,11.27C364.11,72.24,358.6,79.19,353,84c-7.92,6.8-16.16,9.57-24.46,8.25l-.24,0a3.48,3.48,0,0,0-3.94,4.31,24.65,24.65,0,0,0,6.21,10.9L333,110,332,113.46c-.11.35-.22.71-.31,1.07a24.13,24.13,0,0,0,5.14,21.57l-9.24,35.65a7,7,0,1,0,13.64,3.54l7.33-28.24a25.12,25.12,0,0,0,10.13,12.61l-9,34.76A7,7,0,1,0,363.28,198l8.86-34.14a26.8,26.8,0,0,0,5.05-.33l3.36-.56,2.21,2.58a26.34,26.34,0,0,0,26.44,8.21l3.27-.85,2.44,2.33a26.24,26.24,0,0,0,10.66,6.15l-3.85,14.83a7,7,0,0,0,13.65,3.53l4.72-18.21a25.59,25.59,0,0,0,6.23-2.69l2.16-1.3,2.44.62c.63.16,1.26.29,1.89.4l-10.36,39.95A7.05,7.05,0,1,0,456.1,222l11.74-45.28A23.88,23.88,0,0,0,481.47,161a23.45,23.45,0,0,0-.22-12.52l-1-3.48,2.58-2.54a23.42,23.42,0,0,0,4.66-27l-1.4-2.93.53-.87c4.3,5.55,9.47,11.37,14,10.36a8.25,8.25,0,0,0,4.49-3.19c2.32-2.9,3.09-6,2.31-9.06Z"/><path class="cls-1" d="M107.62,340.15a22.16,22.16,0,0,0,7.67-3.84,21.55,21.55,0,0,0,6-6.12h6.64a25,25,0,0,1-3.73,5.29,47.09,47.09,0,0,1-5.39,5.18,46,46,0,0,1-5.91,4.15,13.21,13.21,0,0,1-5.29,2v3.94L101,353.21c-1.8.55-3.87,1.11-6.22,1.66s-4.77,1.07-7.26,1.55-4.94.87-7.36,1.14a58.8,58.8,0,0,1-6.74.42,67.3,67.3,0,0,1-28.3-6A73.12,73.12,0,0,1,22,335.38,82,82,0,0,1,0,280H3.53v-.41a77.45,77.45,0,0,1,20.63-53,70.15,70.15,0,0,1,22.08-15.87,64,64,0,0,1,27-5.8q17,0,29.44,5.7t22.19,19.6L118.4,230A53.64,53.64,0,0,0,99,214.69q-10.68-4.75-25.19-4.76a57.25,57.25,0,0,0-25,5.59,66.67,66.67,0,0,0-20.42,15,71,71,0,0,0-13.79,22.18A72.44,72.44,0,0,0,9.54,279.8v.42l3.94-.21a66.49,66.49,0,0,0,5.08,24.78,68.25,68.25,0,0,0,13.06,20.53,63.3,63.3,0,0,0,18.87,14A51.86,51.86,0,0,0,73.4,344.5h1q3.74,0,12.34-2A112.43,112.43,0,0,0,107.62,335Z"/><path class="cls-1" d="M178.74,205.78h19.7l54.74,149.09H236.39l-47.9-129-26.34,71.54h40.23V303H154.89l-18.45,51.84h-5.81l19.08-54.64h-5.6Z"/><path class="cls-1" d="M336.33,285l39.19,69.88h-7.67L330.11,285h-51v22.39H275v47.49h-5.6V307.38h-4.14V204.12h42.5v3.32h35.05a34.68,34.68,0,0,1,15.34,3.22,33.43,33.43,0,0,1,11,8.32,35.85,35.85,0,0,1,6.64,11.64A40.54,40.54,0,0,1,378,244a44.6,44.6,0,0,1-2.07,13.31,38.85,38.85,0,0,1-6.43,12.26,42.71,42.71,0,0,1-10.89,9.78A40.66,40.66,0,0,1,343.17,285Zm-57.23-6.22h63.24a38.14,38.14,0,0,0,12.76-4.86,36.08,36.08,0,0,0,9.22-8.06A34.81,34.81,0,0,0,370,255.62a34,34,0,0,0,2-11.37,26.38,26.38,0,0,0-.83-7.44,31,31,0,0,0-9-16.54q-7-6.61-19.39-6.61H307.71V218H279.1Z"/><path class="cls-1" d="M433,237.3h-4.14l5.8,8.71h-6.22l-6-8.71h-3.94l-3.73-5.39v39.81h-5v52.46h-6V271.72h-5.6V209.51h16.59Zm18.87,34.83,50.39,74.44V208.68h5.6V354.87h-7.05L445.4,272.13Z"/></g></g></svg>